<?xml version="1.0" encoding="UTF-8"?>
<svg width="32px" height="32px" viewBox="0 0 32 32" version="1.1" xmlns="http://www.w3.org/2000/svg" xmlns:xlink="http://www.w3.org/1999/xlink">
    <!-- Generator: Sketch 58 (84663) - https://sketch.com -->
    <title>avataaars</title>
    <desc>Created with Sketch.</desc>
    <defs>
        <circle id="path-1" cx="16" cy="16" r="16"></circle>
        <rect id="path-3" x="0" y="0" width="32" height="32"></rect>
        <path d="M8,8 C12.418278,8 16,4.418278 16,0 C16,0 13.3333333,0 8,0 C2.66666667,0 0,0 0,0 C0,4.418278 3.581722,8 8,8 Z" id="path-5"></path>
        <path d="M8,8 C12.418278,8 16,4.418278 16,0 C16,0 13.3333333,0 8,0 C2.66666667,0 0,0 0,0 C0,4.418278 3.581722,8 8,8 Z" id="path-7"></path>
    </defs>
    <g id="avataaars" stroke="none" stroke-width="1" fill="none" fill-rule="evenodd">
        <mask id="mask-2" fill="white">
            <use xlink:href="#path-1"></use>
        </mask>
        <use id="Oval" fill="#F5ADAC" xlink:href="#path-1"></use>
        <g id="Group" mask="url(#mask-2)">
            <g transform="translate(0.000000, 2.000000)">
                <mask id="mask-4" fill="white">
                    <use xlink:href="#path-3"></use>
                </mask>
                <g id="Rectangle" stroke="none" fill="none"></g>
                <path d="M19.5857864,5 L9,5 C7.34314575,5 6,6.34314575 6,8 L6,31 L26,31 L26,11.4142136 L19.5857864,5 Z" id="Path-4" stroke="#C079BA" stroke-width="2" fill="#FFE6FD" fill-rule="evenodd" mask="url(#mask-4)"></path>
                <path d="M6,33 L26,33 L26,12 L21,12 C19.8954305,12 19,11.1045695 19,10 L19,5 L9,5 C7.34314575,5 6,6.34314575 6,8 L6,33 Z" id="Path-3" stroke="#C079BA" stroke-width="2" fill="#FFFFFF" fill-rule="evenodd" mask="url(#mask-4)"></path>
                <g id="Oval-2" stroke="none" stroke-width="1" fill="none" fill-rule="evenodd" mask="url(#mask-4)">
                    <g transform="translate(8.000000, 21.000000)">
                        <mask id="mask-6" fill="white">
                            <use xlink:href="#path-5"></use>
                        </mask>
                        <path stroke="#7A4B76" stroke-width="1" d="M15.4835977,0.5 C14.5287373,0.5 13.7077458,0.5 8,0.5 C2.29225607,0.5 1.47126326,0.5 0.516403235,0.5 C0.77369532,4.40901591 4.02587865,7.5 8,7.5 C11.9741213,7.5 15.2263047,4.40901591 15.4835977,0.5 Z"></path>
                        <circle id="Oval" stroke="none" fill="#C079BA" fill-rule="evenodd" mask="url(#mask-6)" cx="8" cy="14" r="11"></circle>
                        <mask id="mask-8" fill="white">
                            <use xlink:href="#path-7"></use>
                        </mask>
                        <path stroke="#7A4B76" stroke-width="2" d="M14.9291111,1 C14.0507772,1 12.6403572,1 8,1 C3.35964278,1 1.94922283,1 1.07088886,1 C1.55611852,4.39229414 4.47352809,7 8,7 C11.5264719,7 14.4438815,4.39229414 14.9291111,1 Z"></path>
                    </g>
                </g>
                <circle id="Oval" stroke="#7A4B76" stroke-width="2" fill="none" mask="url(#mask-4)" cx="12" cy="17" r="2"></circle>
                <circle id="Oval-Copy" stroke="#7A4B76" stroke-width="2" fill="none" mask="url(#mask-4)" cx="20" cy="17" r="2"></circle>
                <path d="M10,11 L13,11 C13.5522847,11 14,11.4477153 14,12 C14,12.5522847 13.5522847,13 13,13 L10,13 C9.44771525,13 9,12.5522847 9,12 C9,11.4477153 9.44771525,11 10,11 Z" id="Rectangle" stroke="none" fill="#7A4B76" fill-rule="evenodd" mask="url(#mask-4)"></path>
            </g>
        </g>
    </g>
</svg>