<svg xmlns="http://www.w3.org/2000/svg" width="24" height="24" viewBox="0 0 24 24">
    <path fill="#E0BADD" fill-rule="nonzero" d="M21.94 13.083l-1.048-3.138a.434.434 0 0 0-.026-.084l-2.104-6.306a.835.835 0 0 0-.8-.555.82.82 0 0 0-.789.56l-2.006 6.009H8.836L6.826 3.56A.82.82 0 0 0 6.042 3h-.005a.837.837 0 0 0-.796.56L3.133 9.875c0 .005-.004.01-.006.016l-1.068 3.193c-.16.48.015 1.007.435 1.304l9.226 6.526a.482.482 0 0 0 .558-.003l9.228-6.523c.42-.297.596-.824.435-1.304M8.149 10.49l2.572 7.704-6.174-7.704m8.735 7.706l2.466-7.386.107-.32h3.605l-5.586 6.965M17.971 4.15l1.807 5.418h-3.617m-1.3.918l-1.792 5.368L12 19.05l-2.857-8.564m-3.11-6.336l1.81 5.418H4.228m-1.179 4.075a.244.244 0 0 1-.092-.277l.793-2.372 5.816 7.257m11.386-4.608l-6.518 4.606.022-.027 5.794-7.228.793 2.37a.244.244 0 0 1-.091.279"/>
</svg>
