<svg width="512" height="512" viewBox="0 0 512 512" fill="none" xmlns="http://www.w3.org/2000/svg">
<rect width="512" height="512" fill="#C4C4C4"/>
<path d="M382.51 275.5H365.01V345.5C354.744 351.333 339.694 356.583 319.86 361.25C300.26 365.683 279.027 367.9 256.16 367.9C212.527 367.9 178.344 356.467 153.61 333.6C128.877 310.5 116.51 274.917 116.51 226.85C116.51 177.617 128.76 141.8 153.26 119.4C177.994 97 213.227 85.8 258.96 85.8C281.127 85.8 301.894 88.1333 321.26 92.8C340.627 97.4667 355.21 102.717 365.01 108.55V192.2H277.51V175.75C277.51 165.95 275.41 158.95 271.21 154.75C267.244 150.317 260.827 148.1 251.96 148.1C243.094 148.1 236.56 150.317 232.36 154.75C228.394 158.95 226.41 165.95 226.41 175.75V277.95C226.41 287.75 228.394 294.867 232.36 299.3C236.56 303.5 243.094 305.6 251.96 305.6C260.827 305.6 267.244 303.5 271.21 299.3C275.41 294.867 277.51 287.75 277.51 277.95V275.5H258.61V223.35H382.51V275.5Z" transform="translate(8 18)" fill="white"/>
</svg>
