<?xml version="1.0" encoding="utf-8"?>
<!-- Generator: Adobe Illustrator 22.1.0, SVG Export Plug-In . SVG Version: 6.00 Build 0)  -->
<svg version="1.1" id="Layer_1" xmlns="http://www.w3.org/2000/svg" xmlns:xlink="http://www.w3.org/1999/xlink" x="0px" y="0px"
	 viewBox="0 0 512 512" style="enable-background:new 0 0 512 512;" xml:space="preserve">
<style type="text/css">
	.st0{fill:#C495D6;}
	.st1{fill:#F4ADAD;}
	.st2{fill:#7894AB;}
	.st3{fill:#CCFFB5;}
	.st4{fill:#B395BD;}
	.st5{fill:#74758C;}
	.st6{fill:#AAE4A0;}
	.st7{fill:#C079BA;}
	.st8{fill:#A789B3;}
</style>
<path class="st0" d="M4,290.8V121.3C4,55.6,57.6,2,123.3,2h166.5l1,287.8L4,290.8z"/>
<path class="st1" d="M4,221.2v169.6C4,456.4,57.6,510,123.3,510h166.5V221.2H4z"/>
<path class="st2" d="M507,221.2v169.6c0,65.5-53.6,119.3-119.3,119.3H220.1V222.2L507,221.2z"/>
<path class="st3" d="M506.7,289.5l0.2-168.3C507,55.7,453.3,2,387.7,2H220.1v287.8L506.7,289.5z"/>
<rect x="220.1" y="2" class="st4" width="69.7" height="287.8"/>
<rect x="220.1" y="289.8" class="st5" width="69.7" height="220.2"/>
<polygon class="st6" points="289.8,289.8 289.8,221.2 506.7,221.2 506.7,289.5 "/>
<polygon class="st7" points="4,289.5 4,221.2 220.1,221.2 220.1,289.8 "/>
<polygon class="st8" points="289.8,289.8 220.1,289.8 220.1,221.2 289.8,221.2 "/>
</svg>
