<?xml version="1.0" encoding="utf-8"?>
<!-- Generator: Adobe Illustrator 26.3.1, SVG Export Plug-In . SVG Version: 6.00 Build 0)  -->
<svg version="1.1" id="Layer_1" xmlns="http://www.w3.org/2000/svg" xmlns:xlink="http://www.w3.org/1999/xlink" x="0px" y="0px"
	 viewBox="0 0 24 24" style="enable-background:new 0 0 24 24;" xml:space="preserve">
<style type="text/css">
	.st0{fill:#C079BA;}
	.st1{fill:#FFFFFF;}
</style>
<path class="st0" d="M11,4l-0.5-1L10,4L9,4.1l0.8,0.7L9.5,6l1-0.7l1,0.7l-0.3-1.2L12,4.1L11,4z M19.3,14.7L18.5,13l-0.8,1.7L16,14.9
	l1.4,1.2L16.8,18l1.7-1.1l1.7,1.1l-0.6-1.9l1.4-1.2L19.3,14.7z M6.7,6.3L6,5L5.3,6.3L4,6.5l1.1,0.9L4.7,9L6,8.1L7.3,9L6.9,7.4L8,6.5
	L6.7,6.3z M0.9,19.5c0,0.5,0.2,1,0.6,1.4l1.6,1.6c0.4,0.4,0.9,0.6,1.4,0.6s1-0.2,1.4-0.6L20,8.4C20.4,8,20.6,7.5,20.6,7
	S20.4,6,20,5.6L18.4,4c-0.8-0.8-2.1-0.8-2.8,0L1.5,18.1C1.2,18.5,0.9,19,0.9,19.5z M17,5.4L18.6,7L15,10.6L13.4,9L17,5.4z"/>
<path class="st0" d="M6,40.8c0,1.7,1.3,3,3,3c0.8,0,1.5-0.3,2-0.8l6,3.4c0,0.1,0,0.3,0,0.4c0,1.7,1.3,3,3,3s3-1.3,3-3s-1.3-3-3-3
	c-0.8,0-1.5,0.3-2,0.8l-6-3.4c0-0.1,0-0.3,0-0.4c0-0.1,0-0.3,0-0.4l6-3.4c0.5,0.5,1.3,0.8,2,0.8c1.7,0,3-1.3,3-3s-1.3-3-3-3
	s-3,1.3-3,3c0,0.1,0,0.3,0,0.4l-6,3.4c-0.5-0.5-1.3-0.8-2-0.8C7.3,37.8,6,39.1,6,40.8z"/>
<path class="st1" d="M14.6,10.8l-1.5-1.5c-0.4-0.4-0.4-1.2,0-1.6l3.1-3.1c0.4-0.4,1.2-0.4,1.6,0l1.5,1.5c0.4,0.4,0.4,1.2,0,1.6
	l-3.1,3.1C15.7,11.3,15,11.3,14.6,10.8z"/>
</svg>
