<svg xmlns="http://www.w3.org/2000/svg" width="125" height="32" viewBox="0 0 125 32">
    <g fill="none" fill-rule="evenodd">
        <g fill="#4A4A4A" fill-rule="nonzero">
            <path d="M45.38 16.74l-1.474-3.08h-.066V24h-3.146V8.644h3.652l4.202 7.26 1.474 3.08h.066V8.644h3.146V24h-3.652zM60.132 24.264c-.85 0-1.61-.14-2.277-.418a4.543 4.543 0 0 1-1.694-1.21c-.462-.528-.818-1.166-1.067-1.914-.25-.748-.374-1.584-.374-2.508 0-.924.125-1.76.374-2.508.25-.748.605-1.382 1.067-1.903a4.6 4.6 0 0 1 1.694-1.199c.667-.279 1.426-.418 2.277-.418.85 0 1.61.14 2.277.418a4.6 4.6 0 0 1 1.694 1.199c.462.52.818 1.155 1.067 1.903.25.748.374 1.584.374 2.508 0 .924-.125 1.76-.374 2.508-.25.748-.605 1.386-1.067 1.914a4.543 4.543 0 0 1-1.694 1.21c-.667.279-1.426.418-2.277.418zm0-2.574c.645 0 1.144-.198 1.496-.594.352-.396.528-.96.528-1.694v-2.354c0-.733-.176-1.298-.528-1.694-.352-.396-.85-.594-1.496-.594-.645 0-1.144.198-1.496.594-.352.396-.528.96-.528 1.694v2.354c0 .733.176 1.298.528 1.694.352.396.85.594 1.496.594zM71.16 24c-1.13 0-1.984-.286-2.563-.858-.58-.572-.869-1.408-.869-2.508V14.98H66.1v-2.53h.814c.44 0 .74-.106.902-.319.161-.213.242-.517.242-.913V9.326h2.926v3.124h2.288v2.53h-2.288v6.49h2.112V24H71.16zM79.878 24.264c-.88 0-1.665-.143-2.354-.429a4.86 4.86 0 0 1-1.749-1.21c-.477-.52-.836-1.155-1.078-1.903-.242-.748-.363-1.584-.363-2.508 0-.91.117-1.734.352-2.475a5.262 5.262 0 0 1 1.045-1.903 4.632 4.632 0 0 1 1.705-1.221c.675-.286 1.445-.429 2.31-.429.953 0 1.771.161 2.453.484a4.63 4.63 0 0 1 1.672 1.298 5.23 5.23 0 0 1 .946 1.881 8.29 8.29 0 0 1 .297 2.233v.968H77.7v.176c0 .763.205 1.368.616 1.815.41.447 1.056.671 1.936.671.675 0 1.225-.136 1.65-.407a6.486 6.486 0 0 0 1.188-.979l1.628 2.024c-.513.601-1.184 1.07-2.013 1.408-.829.337-1.771.506-2.827.506zm-.066-9.68c-.66 0-1.177.216-1.551.649-.374.433-.561 1.008-.561 1.727v.176h4.048v-.198c0-.704-.158-1.272-.473-1.705-.315-.433-.803-.649-1.463-.649zM90.044 24H86.7V8.644h7.282c.704 0 1.342.117 1.914.352.572.235 1.06.568 1.463 1.001.403.433.715.95.935 1.551.22.601.33 1.269.33 2.002 0 1.041-.231 1.95-.693 2.728-.462.777-1.162 1.342-2.101 1.694L98.844 24h-3.718l-2.684-5.632h-2.398V24zm3.52-8.448c.499 0 .891-.128 1.177-.385.286-.257.429-.634.429-1.133v-.968c0-.499-.143-.876-.429-1.133-.286-.257-.678-.385-1.177-.385h-3.52v4.004h3.52zM102.092 11.218c-.66 0-1.14-.15-1.441-.451-.3-.3-.451-.686-.451-1.155v-.484c0-.47.15-.854.451-1.155.3-.3.781-.451 1.441-.451s1.14.15 1.441.451c.3.3.451.686.451 1.155v.484c0 .47-.15.854-.451 1.155-.3.3-.781.451-1.441.451zM100.464 12.45h3.256V24h-3.256zM110.612 24.264c-.85 0-1.61-.14-2.277-.418a4.543 4.543 0 0 1-1.694-1.21c-.462-.528-.818-1.166-1.067-1.914-.25-.748-.374-1.584-.374-2.508 0-.924.125-1.76.374-2.508.25-.748.605-1.382 1.067-1.903a4.6 4.6 0 0 1 1.694-1.199c.667-.279 1.426-.418 2.277-.418.85 0 1.61.14 2.277.418a4.6 4.6 0 0 1 1.694 1.199c.462.52.818 1.155 1.067 1.903.25.748.374 1.584.374 2.508 0 .924-.125 1.76-.374 2.508-.25.748-.605 1.386-1.067 1.914a4.543 4.543 0 0 1-1.694 1.21c-.667.279-1.426.418-2.277.418zm0-2.574c.645 0 1.144-.198 1.496-.594.352-.396.528-.96.528-1.694v-2.354c0-.733-.176-1.298-.528-1.694-.352-.396-.85-.594-1.496-.594-.645 0-1.144.198-1.496.594-.352.396-.528.96-.528 1.694v2.354c0 .733.176 1.298.528 1.694.352.396.85.594 1.496.594zM121.46 24c-1.13 0-1.984-.286-2.563-.858-.58-.572-.869-1.408-.869-2.508V14.98H116.4v-2.53h.814c.44 0 .74-.106.902-.319.161-.213.242-.517.242-.913V9.326h2.926v3.124h2.288v2.53h-2.288v6.49h2.112V24h-1.936z"/>
        </g>
        <path fill="#CCFFB5" d="M21 .504V4a8 8 0 0 0 8 8h3.496c.329 1.278.504 2.619.504 4 0 8.837-7.163 16-16 16S1 24.837 1 16 8.163 0 17 0c1.381 0 2.722.175 4 .504z"/>
        <path fill="#AAE4A0" d="M32.496 12H29c-7 0-8-1-8-8V.504L32.496 12z"/>
        <path fill="#7894AB" d="M33 16c0 8.837-7.163 16-16 16V16h16z"/>
        <path fill="#F4ADAD" d="M17 32C8.163 32 1 24.837 1 16h16v16z"/>
        <path fill="#C495D6" d="M17 0v16H1C1 7.163 8.163 0 17 0z"/>
    </g>
</svg>
