<?xml version="1.0" encoding="UTF-8"?>
<svg width="125px" height="32px" viewBox="0 0 125 32" version="1.1" xmlns="http://www.w3.org/2000/svg" xmlns:xlink="http://www.w3.org/1999/xlink">
    <!-- Generator: Sketch 57.1 (83088) - https://sketch.com -->
    <title>NoteRiot Web Logo - Round</title>
    <desc>Created with Sketch.</desc>
    <g id="Symbols" stroke="none" stroke-width="1" fill="none" fill-rule="evenodd">
        <g id="NoteRiot-Web-Logo---Round">
            <g id="NoteRiot-Web-Logo" transform="translate(40.000000, 7.000000)" fill="#4A4A4A" fill-rule="nonzero">
                <polygon id="Path" points="5.38 9.74 3.906 6.66 3.84 6.66 3.84 17 0.694 17 0.694 1.644 4.346 1.644 8.548 8.904 10.022 11.984 10.088 11.984 10.088 1.644 13.234 1.644 13.234 17 9.582 17"></polygon>
                <path d="M20.132,5.186 C20.9826709,5.186 21.7416633,5.32533194 22.409,5.604 C23.0763367,5.88266806 23.6409977,6.28233073 24.103,6.803 C24.5650023,7.32366927 24.9206654,7.95799626 25.17,8.706 C25.4193346,9.45400374 25.544,10.2899954 25.544,11.214 C25.544,12.1380046 25.4193346,12.9739963 25.17,13.722 C24.9206654,14.4700037 24.5650023,15.1079974 24.103,15.636 C23.6409977,16.1640026 23.0763367,16.5673319 22.409,16.846 C21.7416633,17.1246681 20.9826709,17.264 20.132,17.264 C19.2813291,17.264 18.5223367,17.1246681 17.855,16.846 C17.1876633,16.5673319 16.6230023,16.1640026 16.161,15.636 C15.6989977,15.1079974 15.3433346,14.4700037 15.094,13.722 C14.8446654,12.9739963 14.72,12.1380046 14.72,11.214 C14.72,10.2899954 14.8446654,9.45400374 15.094,8.706 C15.3433346,7.95799626 15.6989977,7.32366927 16.161,6.803 C16.6230023,6.28233073 17.1876633,5.88266806 17.855,5.604 C18.5223367,5.32533194 19.2813291,5.186 20.132,5.186 Z M20.132,7.76 C19.4866634,7.76 18.9880018,7.95799802 18.636,8.354 C18.2839982,8.75000198 18.108,9.314663 18.108,10.048 L18.108,12.402 C18.108,13.135337 18.2839982,13.699998 18.636,14.096 C18.9880018,14.492002 19.4866634,14.69 20.132,14.69 C20.7773366,14.69 21.2759982,14.492002 21.628,14.096 C21.9800018,13.699998 22.156,13.135337 22.156,12.402 L22.156,10.048 C22.156,9.314663 21.9800018,8.75000198 21.628,8.354 C21.2759982,7.95799802 20.7773366,7.76 20.132,7.76 Z" id="Combined-Shape"></path>
                <path d="M31.16,17 C30.030661,17 29.1763362,16.7140029 28.597,16.142 C28.0176638,15.5699971 27.728,14.7340055 27.728,13.634 L27.728,7.98 L26.1,7.98 L26.1,5.45 L26.914,5.45 C27.3540022,5.45 27.6546659,5.34366773 27.816,5.131 C27.9773341,4.91833227 28.058,4.61400198 28.058,4.218 L28.058,2.326 L30.984,2.326 L30.984,5.45 L33.272,5.45 L33.272,7.98 L30.984,7.98 L30.984,14.47 L33.096,14.47 L33.096,17 L31.16,17 Z" id="Path"></path>
                <path d="M39.746,5.186 C40.6993381,5.186 41.5169966,5.34733172 42.199,5.67 C42.8810034,5.99266828 43.4383312,6.42533062 43.871,6.968 C44.3036688,7.51066938 44.618999,8.13766311 44.817,8.849 C45.015001,9.56033689 45.114,10.3046628 45.114,11.082 L45.114,12.05 L37.7,12.05 L37.7,12.226 C37.7,12.9886705 37.9053313,13.5936644 38.316,14.041 C38.7266687,14.4883356 39.3719956,14.712 40.252,14.712 C40.92667,14.712 41.4766645,14.5763347 41.902,14.305 C42.3273355,14.0336653 42.7233315,13.7073352 43.09,13.326 L44.718,15.35 C44.2046641,15.9513363 43.5336708,16.420665 42.705,16.758 C41.8763292,17.095335 40.9340053,17.264 39.878,17.264 C38.9979956,17.264 38.2133368,17.1210014 37.524,16.835 C36.8346632,16.5489986 36.2516691,16.1456693 35.775,15.625 C35.298331,15.1043307 34.9390012,14.4700037 34.697,13.722 C34.4549988,12.9739963 34.334,12.1380046 34.334,11.214 C34.334,10.3046621 34.4513322,9.47967037 34.686,8.739 C34.9206678,7.99832963 35.2689977,7.36400264 35.731,6.836 C36.1930023,6.30799736 36.76133,5.90100143 37.436,5.615 C38.11067,5.32899857 38.8806623,5.186 39.746,5.186 Z M39.812,7.584 C39.1519967,7.584 38.6350019,7.80033117 38.261,8.233 C37.8869981,8.66566883 37.7,9.24132974 37.7,9.96 L37.7,10.136 L41.748,10.136 L41.748,9.938 C41.748,9.23399648 41.5903349,8.66566883 41.275,8.233 C40.9596651,7.80033117 40.4720033,7.584 39.812,7.584 Z" id="Combined-Shape"></path>
                <path d="M53.982,1.644 C54.6860035,1.644 55.3239971,1.76133216 55.896,1.996 C56.4680029,2.23066784 56.9556646,2.56433117 57.359,2.997 C57.7623353,3.42966883 58.0739989,3.94666366 58.294,4.548 C58.5140011,5.14933634 58.624,5.816663 58.624,6.55 C58.624,7.59133854 58.3930023,8.50066278 57.931,9.278 C57.4689977,10.0553372 56.7686714,10.6199982 55.83,10.972 L58.844,17 L55.126,17 L52.442,11.368 L50.044,11.368 L50.044,17 L46.7,17 L46.7,1.644 L53.982,1.644 Z M53.564,4.548 L50.044,4.548 L50.044,8.552 L53.564,8.552 C54.0626692,8.552 54.4549986,8.42366795 54.741,8.167 C55.0270014,7.91033205 55.17,7.53266916 55.17,7.034 L55.17,6.066 C55.17,5.56733084 55.0270014,5.18966795 54.741,4.933 C54.4549986,4.67633205 54.0626692,4.548 53.564,4.548 Z" id="Combined-Shape"></path>
                <g id="Group-2" transform="translate(60.200000, 0.522000)">
                    <path d="M1.892,3.696 C1.2319967,3.696 0.75166817,3.54566817 0.451,3.245 C0.15033183,2.94433183 -1.70530257e-13,2.55933568 -1.70530257e-13,2.09 L-1.70530257e-13,1.606 C-1.70530257e-13,1.13666432 0.15033183,0.75166817 0.451,0.451 C0.75166817,0.15033183 1.2319967,1.42108547e-14 1.892,1.42108547e-14 C2.5520033,1.42108547e-14 3.03233183,0.15033183 3.333,0.451 C3.63366817,0.75166817 3.784,1.13666432 3.784,1.606 L3.784,2.09 C3.784,2.55933568 3.63366817,2.94433183 3.333,3.245 C3.03233183,3.54566817 2.5520033,3.696 1.892,3.696 Z" id="Path"></path>
                    <polygon id="Path" points="0.264 4.928 3.52 4.928 3.52 16.478 0.264 16.478"></polygon>
                </g>
                <path d="M70.612,5.186 C71.4626709,5.186 72.2216633,5.32533194 72.889,5.604 C73.5563367,5.88266806 74.1209977,6.28233073 74.583,6.803 C75.0450023,7.32366927 75.4006654,7.95799626 75.65,8.706 C75.8993346,9.45400374 76.024,10.2899954 76.024,11.214 C76.024,12.1380046 75.8993346,12.9739963 75.65,13.722 C75.4006654,14.4700037 75.0450023,15.1079974 74.583,15.636 C74.1209977,16.1640026 73.5563367,16.5673319 72.889,16.846 C72.2216633,17.1246681 71.4626709,17.264 70.612,17.264 C69.7613291,17.264 69.0023367,17.1246681 68.335,16.846 C67.6676633,16.5673319 67.1030023,16.1640026 66.641,15.636 C66.1789977,15.1079974 65.8233346,14.4700037 65.574,13.722 C65.3246654,12.9739963 65.2,12.1380046 65.2,11.214 C65.2,10.2899954 65.3246654,9.45400374 65.574,8.706 C65.8233346,7.95799626 66.1789977,7.32366927 66.641,6.803 C67.1030023,6.28233073 67.6676633,5.88266806 68.335,5.604 C69.0023367,5.32533194 69.7613291,5.186 70.612,5.186 Z M70.612,7.76 C69.9666634,7.76 69.4680018,7.95799802 69.116,8.354 C68.7639982,8.75000198 68.588,9.314663 68.588,10.048 L68.588,12.402 C68.588,13.135337 68.7639982,13.699998 69.116,14.096 C69.4680018,14.492002 69.9666634,14.69 70.612,14.69 C71.2573366,14.69 71.7559982,14.492002 72.108,14.096 C72.4600018,13.699998 72.636,13.135337 72.636,12.402 L72.636,10.048 C72.636,9.314663 72.4600018,8.75000198 72.108,8.354 C71.7559982,7.95799802 71.2573366,7.76 70.612,7.76 Z" id="Combined-Shape"></path>
                <path d="M81.46,17 C80.330661,17 79.4763362,16.7140029 78.897,16.142 C78.3176638,15.5699971 78.028,14.7340055 78.028,13.634 L78.028,7.98 L76.4,7.98 L76.4,5.45 L77.214,5.45 C77.6540022,5.45 77.9546659,5.34366773 78.116,5.131 C78.2773341,4.91833227 78.358,4.61400198 78.358,4.218 L78.358,2.326 L81.284,2.326 L81.284,5.45 L83.572,5.45 L83.572,7.98 L81.284,7.98 L81.284,14.47 L83.396,14.47 L83.396,17 L81.46,17 Z" id="Path"></path>
            </g>
            <g id="Group" transform="translate(1.000000, 0.000000)">
                <path d="M16,0 C17.3812993,0 18.7217164,0.175037618 20.0002806,0.504142157 L20,4 C20,8.418278 23.581722,12 28,12 L28,12 L31.4961162,12.0007233 C31.825054,13.2789852 32,14.6190622 32,16 C32,24.836556 24.836556,32 16,32 C7.163444,32 0,24.836556 0,16 C0,7.163444 7.163444,0 16,0 Z" id="Combined-Shape" fill="#CCFFB5"></path>
                <path d="M31.4959301,12 L28,12 C21,12 20,11 20,4 L20,0.504069941 L31.4959301,12 Z" id="Path" fill="#AAE4A0"></path>
                <path d="M16,16 L32,16 C32,24.7313589 25.006099,31.8292047 16.3148707,31.9969636 L16,32 L16,16 Z" id="Combined-Shape" fill="#7894AB"></path>
                <path d="M16,16 L16,32 C7.2686411,32 0.17079531,25.006099 0.00303641878,16.3148707 L0,16 L16,16 Z" id="Combined-Shape" fill="#F4ADAD"></path>
                <path d="M16,0 L16,16 L0,16 C0,7.163444 7.163444,0 16,0 Z" id="Combined-Shape" fill="#C495D6"></path>
            </g>
        </g>
    </g>
</svg>