<svg width="512" height="134" viewBox="0 0 512 134" fill="none" xmlns="http://www.w3.org/2000/svg">
<path d="M246.924 48.5626C250.478 48.5626 253.65 49.1448 256.438 50.3092C259.226 51.4736 261.586 53.1435 263.516 55.3191C265.447 57.4946 266.933 60.1451 267.974 63.2705C269.016 66.396 269.537 69.8891 269.537 73.7499C269.537 77.6107 269.016 81.1038 267.974 84.2293C266.933 87.3547 265.447 90.0205 263.516 92.2267C261.586 94.4329 259.226 96.1181 256.438 97.2825C253.65 98.4469 250.478 99.0291 246.924 99.0291C243.369 99.0291 240.198 98.4469 237.41 97.2825C234.621 96.1181 232.262 94.4329 230.331 92.2267C228.401 90.0205 226.915 87.3547 225.873 84.2293C224.831 81.1038 224.31 77.6107 224.31 73.7499C224.31 69.8891 224.831 66.396 225.873 63.2705C226.915 60.1451 228.401 57.4946 230.331 55.3191C232.262 53.1435 234.621 51.4736 237.41 50.3092C240.198 49.1448 243.369 48.5626 246.924 48.5626ZM328.878 48.5626C332.862 48.5626 336.278 49.2368 339.128 50.585C341.978 51.9332 344.306 53.741 346.114 56.0085C347.922 58.276 349.24 60.8958 350.067 63.868C350.894 66.8403 351.308 69.9503 351.308 73.1983V77.243H320.329V77.9784C320.329 81.1651 321.187 83.693 322.903 85.5622C324.619 87.4313 327.316 88.3659 330.993 88.3659C333.812 88.3659 336.11 87.799 337.887 86.6652C339.664 85.5315 341.319 84.168 342.851 82.5746L349.653 91.0317C347.508 93.5443 344.705 95.5053 341.242 96.9148C337.78 98.3243 333.842 99.0291 329.43 99.0291C325.753 99.0291 322.474 98.4316 319.594 97.2365C316.714 96.0415 314.278 94.3563 312.286 92.1807C310.294 90.0052 308.793 87.3547 307.782 84.2293C306.771 81.1038 306.265 77.6107 306.265 73.7499C306.265 69.9503 306.755 66.5032 307.736 63.4084C308.716 60.3136 310.172 57.6632 312.102 55.457C314.033 53.2508 316.407 51.5502 319.226 50.3552C322.045 49.1602 325.263 48.5626 328.878 48.5626ZM457.848 48.5626C461.403 48.5626 464.574 49.1448 467.362 50.3092C470.151 51.4736 472.51 53.1435 474.441 55.3191C476.371 57.4946 477.857 60.1451 478.899 63.2705C479.941 66.396 480.462 69.8891 480.462 73.7499C480.462 77.6107 479.941 81.1038 478.899 84.2293C477.857 87.3547 476.371 90.0205 474.441 92.2267C472.51 94.4329 470.151 96.1181 467.362 97.2825C464.574 98.4469 461.403 99.0291 457.848 99.0291C454.294 99.0291 451.122 98.4469 448.334 97.2825C445.546 96.1181 443.186 94.4329 441.256 92.2267C439.326 90.0205 437.839 87.3547 436.798 84.2293C435.756 81.1038 435.235 77.6107 435.235 73.7499C435.235 69.8891 435.756 66.396 436.798 63.2705C437.839 60.1451 439.326 57.4946 441.256 55.3191C443.186 53.1435 445.546 51.4736 448.334 50.3092C451.122 49.1448 454.294 48.5626 457.848 48.5626ZM292.268 36.6125V49.6657H301.828V60.237H292.268V87.3547H301.092V97.926H293.003C288.284 97.926 284.714 96.731 282.294 94.3409C279.873 91.9509 278.663 88.4578 278.663 83.8616V60.237H271.86V49.6657H275.262C277.1 49.6657 278.356 49.2214 279.03 48.3328C279.705 47.4442 280.042 46.1726 280.042 44.518V36.6125H292.268ZM388.362 33.7628C391.303 33.7628 393.969 34.2531 396.359 35.2336C398.749 36.2142 400.787 37.6083 402.472 39.4162C404.158 41.224 405.46 43.3842 406.379 45.8968C407.298 48.4095 407.758 51.1978 407.758 54.262C407.758 58.6131 406.793 62.4126 404.862 65.6606C402.932 68.9086 400.006 71.2679 396.083 72.7387L408.677 97.926H393.142L381.927 74.3934H371.907V97.926H357.935V33.7628H388.362ZM502.44 36.6125V49.6657H512V60.237H502.44V87.3547H511.265V97.926H503.175C498.456 97.926 494.887 96.731 492.466 94.3409C490.045 91.9509 488.835 88.4578 488.835 83.8616V60.237H482.033V49.6657H485.434C487.272 49.6657 488.529 49.2214 489.203 48.3328C489.877 47.4442 490.214 46.1726 490.214 44.518V36.6125H502.44ZM180.964 33.7628L198.521 64.0979L204.68 76.9672H204.956V33.7628H218.101V97.926H202.842L185.284 67.591L179.125 54.7216H178.85V97.926H165.704V33.7628H180.964ZM429.051 49.6657V97.926H415.446V49.6657H429.051ZM246.924 59.3178C244.227 59.3178 242.144 60.1451 240.673 61.7997C239.202 63.4544 238.467 65.8138 238.467 68.8779V78.7138C238.467 81.778 239.202 84.1373 240.673 85.792C242.144 87.4466 244.227 88.2739 246.924 88.2739C249.62 88.2739 251.704 87.4466 253.175 85.792C254.645 84.1373 255.381 81.778 255.381 78.7138V68.8779C255.381 65.8138 254.645 63.4544 253.175 61.7997C251.704 60.1451 249.62 59.3178 246.924 59.3178ZM457.848 59.3178C455.152 59.3178 453.068 60.1451 451.597 61.7997C450.127 63.4544 449.391 65.8138 449.391 68.8779V78.7138C449.391 81.778 450.127 84.1373 451.597 85.792C453.068 87.4466 455.152 88.2739 457.848 88.2739C460.545 88.2739 462.628 87.4466 464.099 85.792C465.57 84.1373 466.305 81.778 466.305 78.7138V68.8779C466.305 65.8138 465.57 63.4544 464.099 61.7997C462.628 60.1451 460.545 59.3178 457.848 59.3178ZM329.154 58.5824C326.396 58.5824 324.236 59.4863 322.674 61.2942C321.111 63.102 320.329 65.5073 320.329 68.5102V69.2456H337.244V68.4183C337.244 65.4767 336.585 63.102 335.267 61.2942C333.95 59.4863 331.912 58.5824 329.154 58.5824ZM386.615 45.8968H371.907V62.6271H386.615C388.699 62.6271 390.338 62.0908 391.533 61.0184C392.728 59.9459 393.326 58.3679 393.326 56.2843V52.2396C393.326 50.156 392.728 48.578 391.533 47.5055C390.338 46.4331 388.699 45.8968 386.615 45.8968ZM422.248 29.0747C425.006 29.0747 427.013 29.7029 428.27 30.9592C429.526 32.2155 430.154 33.8241 430.154 35.7852V37.8075C430.154 39.7686 429.526 41.3772 428.27 42.6335C427.013 43.8898 425.006 44.518 422.248 44.518C419.491 44.518 417.484 43.8898 416.227 42.6335C414.971 41.3772 414.343 39.7686 414.343 37.8075V35.7852C414.343 33.8241 414.971 32.2155 416.227 30.9592C417.484 29.7029 419.491 29.0747 422.248 29.0747Z" fill="#ffffff"/>
<path fill-rule="evenodd" clip-rule="evenodd" d="M66.854 0C72.6257 0 78.2266 0.731399 83.569 2.10657L83.5675 16.7135C83.5675 35.1747 98.5333 50.1405 116.995 50.1405L131.602 50.1399C132.977 55.4821 133.708 61.0827 133.708 66.854C133.708 103.777 103.776 133.708 66.854 133.708C29.9316 133.708 0 103.777 0 66.854C0 29.9316 29.9316 0 66.854 0Z" fill="#CCFFB5"/>
<path fill-rule="evenodd" clip-rule="evenodd" d="M131.602 50.1406H116.994C87.7458 50.1406 83.5674 45.9622 83.5674 16.7135V2.10623L131.602 50.1406Z" fill="#AAE4A0"/>
<path fill-rule="evenodd" clip-rule="evenodd" d="M66.8541 66.8541H133.708C133.708 103.407 104.372 133.109 67.9596 133.699L66.8541 133.708V66.8541Z" fill="#7894AB"/>
<path fill-rule="evenodd" clip-rule="evenodd" d="M66.854 66.8541V133.708C30.3008 133.708 0.599331 104.372 0.00895653 67.9596L0 66.8541H66.854Z" fill="#F4ADAD"/>
<path fill-rule="evenodd" clip-rule="evenodd" d="M66.854 0V66.854H0C0 29.9316 29.9316 0 66.854 0Z" fill="#C495D6"/>
</svg>
