<svg xmlns="http://www.w3.org/2000/svg" width="231" height="286" viewBox="0 0 231 286">
    <g fill="none" fill-rule="evenodd">
        <path fill="#ECD6EB" stroke="#C079BA" stroke-width="3" d="M3.85 16.564C2 20.84 2 26.294 2 37.2v81.6c0 10.906 0 16.36 1.85 20.636a22.5 22.5 0 0 0 11.714 11.714C19.84 153 25.294 153 36.2 153h81.6c10.906 0 16.36 0 20.636-1.85a22.501 22.501 0 0 0 11.714-11.714c1.85-4.276 1.85-9.73 1.85-20.636V37.2c0-10.906 0-16.36-1.85-20.636a22.5 22.5 0 0 0-11.714-11.713C134.16 3 128.706 3 117.8 3H36.2C25.294 3 19.84 3 15.564 4.85A22.5 22.5 0 0 0 3.851 16.565zM102 66c-7.179 0-13-5.821-13-13.002C89 45.821 94.821 40 102 40s13 5.821 13 12.998C115 60.178 109.179 66 102 66zM65 53c0 7.179-5.821 13-13.002 13C44.821 66 39 60.179 39 53s5.821-13 12.998-13C59.18 40 65 45.821 65 53zm37.002 37C94.822 90 89 95.821 89 103s5.821 13 13.002 13c7.177 0 12.998-5.821 12.998-13s-5.821-13-12.998-13zM52 90c7.179 0 13 5.821 13 13.002C65 110.179 59.179 116 52 116s-13-5.821-13-12.998C39 95.822 44.821 90 52 90z"/>
        <path fill="#FFF" fill-rule="nonzero" stroke="#C079BA" stroke-width="3" d="M94.187 94.562a11.462 11.462 0 0 1 7.815-3.062c6.349 0 11.498 5.15 11.498 11.5 0 .638-.052 1.264-.152 1.873a32.554 32.554 0 0 0-3.973 15.627v32.7h65.25v-32.7c0-14.534-9.513-26.886-22.625-31.129V66.924c25.223 4.718 44.375 26.948 44.375 53.576v32.7h10.875c11.995 0 21.75 9.777 21.75 21.8v87.2c0 12.023-9.755 21.8-21.75 21.8H76.75C64.755 284 55 274.223 55 262.2V175c0-12.023 9.755-21.8 21.75-21.8h10.875v-32.7c0-9.384 2.378-18.22 6.562-25.938z"/>
        <path fill="#F9F4FA" fill-rule="nonzero" d="M152 153.2h22.625v-32.7c0-14.534-9.513-26.886-22.625-31.129V66.924c25.223 4.718 44.375 26.948 44.375 53.576v32.7h10.875c11.995 0 21.75 9.777 21.75 21.8v87.2c0 12.023-9.755 21.8-21.75 21.8H152V153.2z"/>
        <path fill-rule="nonzero" stroke="#C079BA" stroke-width="3" d="M94.187 94.562a11.462 11.462 0 0 1 7.815-3.062c6.349 0 11.498 5.15 11.498 11.5 0 .638-.052 1.264-.152 1.873a32.554 32.554 0 0 0-3.973 15.627v32.7h65.25v-32.7c0-14.534-9.513-26.886-22.625-31.129V66.924c25.223 4.718 44.375 26.948 44.375 53.576v32.7h10.875c11.995 0 21.75 9.777 21.75 21.8v87.2c0 12.023-9.755 21.8-21.75 21.8H76.75C64.755 284 55 274.223 55 262.2V175c0-12.023 9.755-21.8 21.75-21.8h10.875v-32.7c0-9.384 2.378-18.22 6.562-25.938z"/>
    </g>
</svg>
