<?xml version="1.0" encoding="UTF-8"?>
<svg width="231px" height="285px" viewBox="0 0 231 285" version="1.1" xmlns="http://www.w3.org/2000/svg" xmlns:xlink="http://www.w3.org/1999/xlink">
    <!-- Generator: Sketch 58 (84663) - https://sketch.com -->
    <title>security</title>
    <desc>Created with Sketch.</desc>
    <g id="Page-1" stroke="none" stroke-width="1" fill="none" fill-rule="evenodd">
        <g id="security" transform="translate(2.000000, 2.000000)">
            <path d="M1.85,13.564 C0,17.84 0,23.294 0,34.2 L0,115.8 C0,126.706 0,132.16 1.85,136.436 C4.12281121,141.688327 8.31167345,145.877189 13.564,148.15 C17.84,150 23.294,150 34.2,150 L115.8,150 C126.706,150 132.16,150 136.436,148.15 C141.688269,145.877104 145.877104,141.688269 148.15,136.436 C150,132.16 150,126.706 150,115.8 L150,34.2 C150,23.294 150,17.84 148.15,13.564 C145.87698,8.31204999 141.688144,4.12357145 136.436,1.851 C132.16,0 126.706,0 115.8,0 L34.2,0 C23.294,0 17.84,0 13.564,1.85 C8.31186747,4.12325959 4.12336283,8.31247942 1.851,13.565 L1.85,13.564 Z M100,63 C92.821,63 87,57.179 87,49.998 C87,42.821 92.821,37 100,37 C107.179,37 113,42.821 113,49.998 C113,57.178 107.179,63 100,63 Z M63,50 C63,57.179 57.179,63 49.998,63 C42.821,63 37,57.179 37,50 C37,42.821 42.821,37 49.998,37 C57.18,37 63,42.821 63,50 Z M100.002,87 C92.822,87 87,92.821 87,100 C87,107.179 92.821,113 100.002,113 C107.179,113 113,107.179 113,100 C113,92.821 107.179,87 100.002,87 L100.002,87 Z M50,87 C57.179,87 63,92.821 63,100.002 C63,107.179 57.179,113 50,113 C42.821,113 37,107.179 37,100.002 C37,92.822 42.821,87 50,87 Z" id="Shape" stroke="#ECD6EB" stroke-width="3" fill="#FFFFFF" fill-rule="nonzero"></path>
            <path d="M92.187,91.562 C94.3111477,89.5899369 97.1035488,88.4958444 100.002,88.5 C106.351,88.5 111.5,93.65 111.5,100 C111.5,100.638 111.448,101.264 111.348,101.873 C108.734189,106.66642 107.367949,112.040253 107.375,117.5 L107.375,150.2 L172.625,150.2 L172.625,117.5 C172.625,102.966 163.112,90.614 150,86.371 L150,63.924 C175.223,68.642 194.375,90.872 194.375,117.5 L194.375,150.2 L205.25,150.2 C217.245,150.2 227,159.977 227,172 L227,259.2 C227,271.223 217.245,281 205.25,281 L74.75,281 C62.755,281 53,271.223 53,259.2 L53,172 C53,159.977 62.755,150.2 74.75,150.2 L85.625,150.2 L85.625,117.5 C85.625,108.116 88.003,99.28 92.187,91.562 Z" id="Path" fill="#C079BA" fill-rule="nonzero"></path>
            <path d="M92.187,91.562 C94.3111477,89.5899369 97.1035488,88.4958444 100.002,88.5 C106.351,88.5 111.5,93.65 111.5,100 C111.5,100.638 111.448,101.264 111.348,101.873 C108.734189,106.66642 107.367949,112.040253 107.375,117.5 L107.375,150.2 L172.625,150.2 L172.625,117.5 C172.625,102.966 163.112,90.614 150,86.371 L150,63.924 C175.223,68.642 194.375,90.872 194.375,117.5 L194.375,150.2 L205.25,150.2 C217.245,150.2 227,159.977 227,172 L227,259.2 C227,271.223 217.245,281 205.25,281 L74.75,281 C62.755,281 53,271.223 53,259.2 L53,172 C53,159.977 62.755,150.2 74.75,150.2 L85.625,150.2 L85.625,117.5 C85.625,108.116 88.003,99.28 92.187,91.562 Z" id="Path" stroke="#ECD6EB" stroke-width="3"></path>
        </g>
    </g>
</svg>