<svg width="24" height="24" viewBox="0 0 24 24" fill="none" xmlns="http://www.w3.org/2000/svg">
<path fill-rule="evenodd" clip-rule="evenodd" d="M4.3438 18.731L2.3438 15.271C2.0678 14.795 2.2328 14.18 2.7088 13.905L4.0808 13.112C4.0268 12.743 3.9998 12.371 3.9998 12C3.9998 11.629 4.0268 11.257 4.0808 10.888L2.7088 10.095C2.2338 9.82 2.0688 9.205 2.3438 8.729L4.3438 5.269C4.6198 4.791 5.2308 4.627 5.7098 4.904L7.1048 5.71C7.6858 5.253 8.3258 4.878 8.9998 4.598V3C8.9998 2.448 9.4468 2 9.9998 2H13.9998C14.5528 2 14.9998 2.448 14.9998 3V4.598C15.6738 4.877 16.3138 5.253 16.8938 5.71L18.2898 4.904C18.7678 4.627 19.3798 4.791 19.6558 5.269L21.6558 8.729C21.9318 9.205 21.7668 9.82 21.2908 10.095L19.9188 10.888C19.9728 11.257 19.9998 11.629 19.9998 12C19.9998 12.371 19.9728 12.743 19.9208 13.112L21.2928 13.905C21.7678 14.18 21.9328 14.795 21.6578 15.271L19.6578 18.731C19.3828 19.206 18.7688 19.371 18.2918 19.096L16.8958 18.29C16.3148 18.747 15.6748 19.122 15.0008 19.402V21C15.0008 21.552 14.5538 22 14.0008 22H10.0008C9.4478 22 9.0008 21.552 9.0008 21V19.402C8.3268 19.122 7.6858 18.747 7.1058 18.29L5.7098 19.096C5.2318 19.373 4.6198 19.209 4.3438 18.731ZM12 15C13.6569 15 15 13.6569 15 12C15 10.3431 13.6569 9 12 9C10.3431 9 9 10.3431 9 12C9 13.6569 10.3431 15 12 15Z" fill="url(#paint0_radial)"/>
<defs>
<radialGradient id="paint0_radial" cx="0" cy="0" r="1" gradientUnits="userSpaceOnUse" gradientTransform="translate(-4.72576 -3.74155) rotate(32.0494) scale(39.3487 43.4416)">
<stop offset="0.286458" stop-color="#F26AB2"/>
<stop offset="0.7769" stop-color="#B64FC6"/>
<stop offset="1" stop-color="#A748CB"/>
</radialGradient>
</defs>
</svg>
