<?xml version="1.0" encoding="utf-8"?>
<!-- Generator: Adobe Illustrator 26.3.1, SVG Export Plug-In . SVG Version: 6.00 Build 0)  -->
<svg version="1.1" id="Layer_1" xmlns="http://www.w3.org/2000/svg" xmlns:xlink="http://www.w3.org/1999/xlink" x="0px" y="0px"
	 viewBox="0 0 24 24" style="enable-background:new 0 0 24 24;" xml:space="preserve">
<style type="text/css">
	.st0{fill:#C079BA;}
</style>
<path class="st0" d="M21,8.2l1.1-1.1c0.8-0.8,0.8-2.1,0-2.8l-1.4-1.4c-0.8-0.8-2-0.8-2.8,0L16.8,4L21,8.2z M15.3,5.4L4,16.8L3,22
	l5.2-1L19.6,9.6L15.3,5.4z M19,17.5c0,2.2-2.5,3.5-5,3.5c-0.6,0-1-0.5-1-1s0.4-1,1-1c1.5,0,3-0.7,3-1.5c0-0.5-0.5-0.9-1.2-1.2
	l1.5-1.5C18.3,15.4,19,16.3,19,17.5z M4.6,13.4C3.6,12.8,3,12.1,3,11c0-1.8,1.9-2.6,3.6-3.4C7.6,7.2,9,6.6,9,6c0-0.4-0.8-1-2-1
	C5.7,5,5.2,5.6,5.2,5.6c-0.3,0.4-1,0.5-1.4,0.1c-0.4-0.3-0.5-1-0.2-1.4C3.7,4.2,4.8,3,7,3s4,1.3,4,3c0,1.9-1.9,2.7-3.6,3.5
	C6.4,9.9,5,10.5,5,11c0,0.3,0.4,0.6,1.1,0.9L4.6,13.4z"/>
</svg>
