<svg xmlns="http://www.w3.org/2000/svg" xmlns:xlink="http://www.w3.org/1999/xlink" width="82" height="83" viewBox="0 0 82 83">
    <defs>
        <path id="b" d="M30.767 0h18.466c10.699 0 14.578 1.114 18.49 3.206 3.91 2.091 6.98 5.16 9.071 9.072C78.886 16.189 80 20.068 80 30.767v18.466c0 10.699-1.114 14.578-3.206 18.49-2.091 3.91-5.16 6.98-9.072 9.071C63.811 78.886 59.932 80 49.233 80H30.767c-10.699 0-14.578-1.114-18.49-3.206-3.91-2.091-6.98-5.16-9.071-9.072C1.114 63.811 0 59.932 0 49.233V30.767c0-10.699 1.114-14.578 3.206-18.49 2.091-3.91 5.16-6.98 9.072-9.071C16.189 1.114 20.068 0 30.767 0z"/>
        <filter id="a" width="105%" height="105%" x="-1.3%" y="-1.3%" filterUnits="objectBoundingBox">
            <feOffset dx="2" dy="2" in="SourceAlpha" result="shadowOffsetOuter1"/>
            <feComposite in="shadowOffsetOuter1" in2="SourceAlpha" operator="out" result="shadowOffsetOuter1"/>
            <feColorMatrix in="shadowOffsetOuter1" values="0 0 0 0 0.757958174 0 0 0 0 0.466465354 0 0 0 0 0.734878302 0 0 0 0.5 0"/>
        </filter>
    </defs>
    <g fill="none" fill-rule="evenodd">
        <use fill="#000" filter="url(#a)" xlink:href="#b"/>
        <path fill="#FFF" stroke="#C079BA" stroke-linejoin="square" d="M30.767.5c-9.679 0-13.89.813-18.253 3.146C8.69 5.692 5.692 8.69 3.646 12.514 1.313 16.876.5 21.088.5 30.767v18.466c0 9.679.813 13.89 3.146 18.253 2.046 3.824 5.044 6.822 8.868 8.868 4.362 2.333 8.574 3.146 18.253 3.146h18.466c9.679 0 13.89-.813 18.253-3.146 3.824-2.046 6.822-5.044 8.868-8.868 2.333-4.362 3.146-8.574 3.146-18.253V30.767c0-9.679-.813-13.89-3.146-18.253-2.046-3.824-5.044-6.822-8.868-8.868C63.124 1.313 58.912.5 49.233.5H30.767z"/>
        <g fill="#4A4A4A" fill-rule="nonzero">
            <path d="M44.018 31.815L43.232 36h-4.966l.716-3.815-1.964-.37L36.232 36H32v2h3.857l-.751 4H31v2h3.731l-.714 3.805 1.965.369.784-4.174h4.966l-.714 3.805 1.965.369.783-4.174H48v-2h-3.859l.751-4H49v-2h-3.733l.716-3.815-1.965-.37zM42.106 42h-4.965l.751-4h4.966l-.752 4z"/>
        </g>
    </g>
</svg>
