<svg xmlns="http://www.w3.org/2000/svg" width="477" height="311" viewBox="0 0 477 311">
    <g fill="none" fill-rule="evenodd">
        <path fill="#F9F4FA" d="M385.546 311H216.824c15.51-47.157 33.901-84.823 55.176-113 21.275-28.177 42.775-43.343 64.5-45.5l52.5-57 66 6C442 164.5 319 205 354.5 254c17.921 24.737 27.305 43.994 31.046 57z"/>
        <path fill="#ECD6EB" d="M255.497 311H136l69-158.5L259 85l65 4.5 12.5 63c-44.595 38.911-83.073 91.967-81.003 158.5z"/>
        <path fill="#E5C8E3" d="M3.905 311C18.466 297.928 51.33 296.263 112 258c88-55.5 63.5-139.5 147-173l65 4.5c-65 29-94.5 99-107 146.5-7.36 27.97-24.776 51.779-45.407 75H3.905z"/>
        <path stroke="#C079BA" stroke-width="3" d="M259 85l65 4.5 12.5 63 52.5-57 66 6C442 164.5 319 205 354.5 254c17.921 24.737 27.305 43.994 31.046 57H3.905C18.466 297.928 51.33 296.263 112 258c88-55.5 63.5-139.5 147-173z"/>
        <g>
            <path fill="#F9F4FA" d="M324 89.5l12.5 63L353 92 475 3z"/>
            <path fill="#FFF" stroke="#C079BA" stroke-linejoin="round" stroke-width="3" d="M323.848 89.412L336.5 152.5 475.111 2.83 353.227 92.201 336.5 152.5l-12.5-63L475.111 2.83 259.114 85.088z"/>
            <path fill="#FFF" stroke="#C079BA" stroke-linejoin="round" stroke-width="3" d="M353.227 92.201l101.682 9.134L475.111 2.83z"/>
        </g>
    </g>
</svg>
