<svg xmlns="http://www.w3.org/2000/svg" width="24" height="24" viewBox="0 0 24 24">
    <path fill="#E0BADD" fill-rule="nonzero" d="M19.945 7.987c.013.176.013.35.013.525C19.958 13.849 15.834 20 8.296 20c-2.323 0-4.48-.663-6.296-1.813.33.037.647.05.99.05 1.917 0 3.68-.638 5.09-1.725-1.803-.037-3.313-1.2-3.834-2.8.253.037.508.062.775.062.367 0 .736-.05 1.08-.137-1.88-.375-3.288-2-3.288-3.963v-.05c.547.3 1.18.488 1.852.513a4.016 4.016 0 0 1-1.827-3.362c0-.75.202-1.438.557-2.037a11.72 11.72 0 0 0 8.453 4.225 4.522 4.522 0 0 1-.101-.925C11.747 5.812 13.574 4 15.846 4c1.18 0 2.246.487 2.995 1.275a8.174 8.174 0 0 0 2.601-.975 4.042 4.042 0 0 1-1.802 2.225A8.315 8.315 0 0 0 22 5.9a8.727 8.727 0 0 1-2.055 2.087z"/>
</svg>
