<?xml version="1.0" standalone="no"?>
<!DOCTYPE svg PUBLIC "-//W3C//DTD SVG 20010904//EN"
 "http://www.w3.org/TR/2001/REC-SVG-20010904/DTD/svg10.dtd">
<svg version="1.0" xmlns="http://www.w3.org/2000/svg"
 width="600.000000pt" height="600.000000pt" viewBox="0 0 600.000000 600.000000"
 preserveAspectRatio="xMidYMid meet">
<g transform="translate(0.000000,600.000000) scale(0.100000,-0.100000)"
fill="#000000" stroke="none">
<path d="M0 3000 l0 -3000 3000 0 3000 0 0 3000 0 3000 -3000 0 -3000 0 0
-3000z m2130 1080 l402 -559 237 332 c130 183 308 433 395 555 87 123 164 226
170 228 6 2 150 3 319 2 l308 -3 -59 -80 c-58 -78 -235 -323 -779 -1073 l-262
-362 521 -718 c287 -394 552 -760 590 -812 l69 -95 -332 -3 c-223 -1 -336 1
-343 8 -6 6 -198 272 -426 592 -229 320 -420 583 -425 584 -6 2 -48 -52 -94
-119 -46 -67 -235 -335 -419 -595 l-334 -472 -329 0 c-181 0 -329 3 -329 6 0
3 244 340 543 750 298 409 559 769 581 799 l38 54 -189 263 c-286 396 -898
1251 -907 1266 -6 9 61 12 322 12 l330 0 402 -560z m2655 -194 c231 -105 286
-415 107 -599 -144 -149 -379 -151 -525 -5 -65 65 -98 139 -104 237 -10 145
48 271 158 341 70 46 129 60 224 57 62 -3 94 -10 140 -31z m-10 -1707 c30 -11
76 -40 102 -64 122 -109 156 -299 81 -453 -31 -64 -107 -138 -176 -170 -49
-23 -70 -27 -152 -27 -82 0 -103 4 -152 27 -79 37 -142 98 -181 177 -30 61
-32 73 -32 166 0 89 4 107 29 162 30 66 96 137 157 169 88 46 221 52 324 13z"/>
</g>
</svg>
