<svg xmlns="http://www.w3.org/2000/svg" width="256" height="256"><path fill-opacity=".078" d="M0 128.004v128.004l128.25-.254 128.25-.254.254-127.75L257.008 0H0v128.004m.485.496c0 70.4.119 99.053.265 63.672.146-35.38.146-92.98 0-128C.604 29.153.485 58.1.485 128.5" fill="#1976D2" fill-rule="evenodd"/><path fill-opacity=".2" d="M53 2.039C27.337 8.638 8.454 27.654 1.986 53.41.105 60.902 0 64.793 0 127.072c0 52.981.279 67.209 1.435 73.255 4.838 25.281 22.716 45.579 46.867 53.208L56.103 256h72.783c71.145 0 72.928-.047 79.199-2.092 22.289-7.271 37.817-22.754 46.038-45.908l2.308-6.5.084-71.5c.049-40.946-.15-58.68-.465-41.5l-.55 30H147V0l-43.25.055C64.402.105 59.823.284 53 2.039M.473 127.5c0 37.4.124 52.555.277 33.677.152-18.878.152-49.478-.001-68C.597 74.655.473 90.1.473 127.5" fill="#1976D2" fill-rule="evenodd"/><path fill-opacity=".149" d="M60.315 1.008C44.956 3.253 32.322 9.678 21 21 9.391 32.609 3.34 44.692.985 60.969.465 64.561.031 83.362.02 102.75L0 138h109v118h45.106c49.998 0 51.261-.129 64.398-6.564 13.122-6.428 24.498-17.799 30.918-30.904 6.48-13.228 6.395-12.156 6.839-86.532.221-37.125.247-51.863.058-32.75l-.345 34.75H146V0l-40.25.125c-22.138.068-42.583.466-45.435.883M.453 101.5c0 20.35.133 28.533.296 18.185.163-10.349.162-26.999-.001-37C.585 72.683.452 81.15.453 101.5" fill="#1976D2" fill-rule="evenodd"/><path fill-opacity=".157" d="M0 127.5v9.5h109v119h43.053c49.196 0 51.363-.249 66.858-7.685 7.678-3.685 10.837-5.942 17.15-12.254 6.305-6.306 8.575-9.48 12.261-17.15 7.025-14.615 7.515-18.559 7.87-63.255.169-21.364.179-34.748.02-29.741l-.287 9.102-55.213-.259-55.212-.258-.29-8.25-.291-8.25H0v9.5m.365 0c.003 5.5.171 7.622.373 4.716.203-2.905.201-7.405-.004-10-.206-2.594-.371-.216-.369 5.284" fill="#1976D2" fill-rule="evenodd"/></svg>